<svg xmlns="http://www.w3.org/2000/svg" viewBox="0 0 1280 210" width="1280" height="210" role="img" aria-label="Kyubum Jang, QA ENGINEER">
  <defs>
    <linearGradient id="bg" x1="0" y1="0" x2="1" y2="1">
      <stop offset="0" stop-color="#F2F5F8"/><stop offset="1" stop-color="#E4EAF0"/>
    </linearGradient>
    <radialGradient id="haze">
      <stop offset="0" stop-color="#0E8FA3" stop-opacity="0.10"/>
      <stop offset="1" stop-color="#0E8FA3" stop-opacity="0"/>
    </radialGradient>
    <linearGradient id="rule" gradientUnits="userSpaceOnUse" x1="68" y1="0" x2="1212" y2="0">
      <stop offset="0" stop-color="#0E8FA3" stop-opacity="0"/>
      <stop offset="0.42" stop-color="#0E8FA3" stop-opacity="0.26"/>
      <stop offset="0.82" stop-color="#0E8FA3" stop-opacity="0.40"/>
      <stop offset="1" stop-color="#0E8FA3" stop-opacity="0"/>
    </linearGradient>
  </defs>
  <rect width="1280" height="210" rx="12" fill="url(#bg)"/>
    <ellipse cx="1080" cy="78" rx="118" ry="74" fill="url(#haze)"/>
    <g fill="none" stroke="#0E8FA3" stroke-linecap="round">
      <path d="M1074.0 178.0 Q1082.1 153.3 1075.7 128.0" stroke-width="8.20" opacity="0.35"/>
      <path d="M1075.7 128.0 Q1065.8 111.7 1057.6 94.4" stroke-width="5.17" opacity="0.402"/>
      <path d="M1075.7 128.0 Q1089.0 113.3 1098.4 95.9" stroke-width="5.17" opacity="0.402"/>
      <path d="M1057.6 94.4 Q1043.7 90.0 1032.4 80.7" stroke-width="3.25" opacity="0.454"/>
      <path d="M1057.6 94.4 Q1054.3 80.3 1057.0 66.0" stroke-width="3.25" opacity="0.454"/>
      <path d="M1098.4 95.9 Q1097.7 81.3 1100.9 67.0" stroke-width="3.25" opacity="0.454"/>
      <path d="M1098.4 95.9 Q1111.3 86.7 1126.1 80.9" stroke-width="3.25" opacity="0.454"/>
      <path d="M1032.4 80.7 Q1021.4 82.7 1010.2 83.4" stroke-width="2.05" opacity="0.506"/>
      <path d="M1032.4 80.7 Q1023.8 74.4 1019.4 64.6" stroke-width="2.05" opacity="0.506"/>
      <path d="M1057.0 66.0 Q1055.2 54.2 1047.1 45.5" stroke-width="2.05" opacity="0.506"/>
      <path d="M1057.0 66.0 Q1057.8 54.4 1064.2 44.8" stroke-width="2.05" opacity="0.506"/>
      <path d="M1100.9 67.0 Q1098.0 56.4 1090.9 47.8" stroke-width="2.05" opacity="0.506"/>
      <path d="M1100.9 67.0 Q1103.2 55.3 1111.2 46.5" stroke-width="2.05" opacity="0.506"/>
      <path d="M1126.1 80.9 Q1133.5 72.5 1142.3 65.4" stroke-width="2.05" opacity="0.506"/>
      <path d="M1126.1 80.9 Q1137.6 83.2 1149.4 83.8" stroke-width="2.05" opacity="0.506"/>
      <path d="M1098.4 95.9 Q1104.2 85.7 1110.1 75.5" stroke-width="2.58" opacity="0.506"/>
      <path d="M1010.2 83.4 Q1002.7 86.1 996.6 91.4" stroke-width="1.29" opacity="0.558"/>
      <path d="M1010.2 83.4 Q1001.8 82.4 995.1 77.1" stroke-width="1.29" opacity="0.558"/>
      <path d="M1019.4 64.6 Q1012.8 60.0 1004.9 58.5" stroke-width="1.29" opacity="0.558"/>
      <path d="M1019.4 64.6 Q1018.4 56.4 1014.0 49.5" stroke-width="1.29" opacity="0.558"/>
      <path d="M1032.4 80.7 Q1024.6 76.6 1015.9 75.9" stroke-width="1.63" opacity="0.558"/>
      <path d="M1047.1 45.5 Q1040.9 40.2 1034.3 35.2" stroke-width="1.29" opacity="0.558"/>
      <path d="M1047.1 45.5 Q1046.0 36.7 1046.0 27.9" stroke-width="1.29" opacity="0.558"/>
      <path d="M1064.2 44.8 Q1061.5 36.2 1061.9 27.2" stroke-width="1.29" opacity="0.558"/>
      <path d="M1064.2 44.8 Q1069.4 38.8 1075.5 33.8" stroke-width="1.29" opacity="0.558"/>
      <path d="M1057.0 66.0 Q1057.0 57.5 1057.3 49.0" stroke-width="1.63" opacity="0.558"/>
      <path d="M1090.9 47.8 Q1083.2 45.0 1078.1 38.6" stroke-width="1.29" opacity="0.558"/>
      <path d="M1090.9 47.8 Q1088.9 39.3 1089.8 30.7" stroke-width="1.29" opacity="0.558"/>
      <path d="M1111.2 46.5 Q1109.0 38.0 1111.6 29.7" stroke-width="1.29" opacity="0.558"/>
      <path d="M1111.2 46.5 Q1117.6 40.2 1124.2 34.2" stroke-width="1.29" opacity="0.558"/>
      <path d="M1100.9 67.0 Q1100.4 58.2 1103.3 49.8" stroke-width="1.63" opacity="0.558"/>
      <path d="M1142.3 65.4 Q1145.9 57.7 1147.0 49.3" stroke-width="1.29" opacity="0.558"/>
      <path d="M1142.3 65.4 Q1150.2 62.2 1158.7 62.0" stroke-width="1.29" opacity="0.558"/>
      <path d="M1149.4 83.8 Q1157.3 79.2 1166.5 79.7" stroke-width="1.29" opacity="0.558"/>
      <path d="M1149.4 83.8 Q1156.9 89.1 1162.5 96.4" stroke-width="1.29" opacity="0.558"/>
      <path d="M1126.1 80.9 Q1134.8 77.3 1142.8 72.1" stroke-width="1.63" opacity="0.558"/>
      <path d="M1110.1 75.5 Q1107.9 65.7 1111.9 56.6" stroke-width="1.63" opacity="0.558"/>
      <path d="M1110.1 75.5 Q1117.5 69.0 1127.2 67.1" stroke-width="1.63" opacity="0.558"/>
      <path d="M996.6 91.4 Q993.2 96.7 988.8 101.3" stroke-width="0.85" opacity="0.61"/>
      <path d="M996.6 91.4 Q990.8 91.1 985.0 91.3" stroke-width="0.85" opacity="0.61"/>
      <path d="M995.1 77.1 Q989.0 76.3 982.8 76.6" stroke-width="0.85" opacity="0.61"/>
      <path d="M995.1 77.1 Q990.4 73.5 986.6 68.9" stroke-width="0.85" opacity="0.61"/>
      <path d="M1004.9 58.5 Q999.0 57.9 993.3 59.4" stroke-width="0.85" opacity="0.61"/>
      <path d="M1004.9 58.5 Q999.7 55.6 996.6 50.5" stroke-width="0.85" opacity="0.61"/>
      <path d="M1014.0 49.5 Q1012.0 43.4 1007.0 39.4" stroke-width="0.85" opacity="0.61"/>
      <path d="M1014.0 49.5 Q1011.7 43.1 1013.3 36.5" stroke-width="0.85" opacity="0.61"/>
      <path d="M1015.9 75.9 Q1009.0 75.7 1002.0 75.8" stroke-width="1.03" opacity="0.61"/>
      <path d="M1015.9 75.9 Q1011.4 70.8 1008.2 64.9" stroke-width="1.03" opacity="0.61"/>
      <path d="M1034.3 35.2 Q1027.8 34.6 1021.4 33.5" stroke-width="0.85" opacity="0.61"/>
      <path d="M1034.3 35.2 Q1032.4 28.8 1028.0 23.8" stroke-width="0.85" opacity="0.61"/>
      <path d="M1046.0 27.9 Q1042.7 22.4 1040.9 16.1" stroke-width="0.85" opacity="0.61"/>
      <path d="M1046.0 27.9 Q1049.2 21.7 1051.9 15.3" stroke-width="0.85" opacity="0.61"/>
      <path d="M1061.9 27.2 Q1056.6 22.8 1053.2 16.9" stroke-width="0.85" opacity="0.61"/>
      <path d="M1061.9 27.2 Q1063.6 20.7 1065.8 14.4" stroke-width="0.85" opacity="0.61"/>
      <path d="M1075.5 33.8 Q1078.0 28.7 1079.3 23.1" stroke-width="0.85" opacity="0.61"/>
      <path d="M1075.5 33.8 Q1080.6 30.9 1086.0 28.6" stroke-width="0.85" opacity="0.61"/>
      <path d="M1057.3 49.0 Q1053.9 43.4 1052.2 37.2" stroke-width="1.03" opacity="0.61"/>
      <path d="M1057.3 49.0 Q1061.9 44.8 1064.0 38.9" stroke-width="1.03" opacity="0.61"/>
      <path d="M1078.1 38.6 Q1071.9 38.3 1066.7 35.0" stroke-width="0.85" opacity="0.61"/>
      <path d="M1078.1 38.6 Q1075.0 33.9 1071.4 29.5" stroke-width="0.85" opacity="0.61"/>
      <path d="M1089.8 30.7 Q1084.9 25.7 1083.7 18.9" stroke-width="0.85" opacity="0.61"/>
      <path d="M1089.8 30.7 Q1092.0 24.7 1095.2 19.3" stroke-width="0.85" opacity="0.61"/>
      <path d="M1111.6 29.7 Q1109.9 22.9 1104.9 17.9" stroke-width="0.85" opacity="0.61"/>
      <path d="M1111.6 29.7 Q1114.7 24.6 1117.0 19.2" stroke-width="0.85" opacity="0.61"/>
      <path d="M1124.2 34.2 Q1127.7 28.0 1130.2 21.4" stroke-width="0.85" opacity="0.61"/>
      <path d="M1124.2 34.2 Q1130.1 30.9 1136.9 30.8" stroke-width="0.85" opacity="0.61"/>
      <path d="M1103.3 49.8 Q1103.1 43.0 1099.7 37.1" stroke-width="1.03" opacity="0.61"/>
      <path d="M1103.3 49.8 Q1106.9 44.4 1109.4 38.5" stroke-width="1.03" opacity="0.61"/>
      <path d="M1147.0 49.3 Q1143.6 43.8 1143.9 37.3" stroke-width="0.85" opacity="0.61"/>
      <path d="M1147.0 49.3 Q1152.1 45.5 1155.1 39.8" stroke-width="0.85" opacity="0.61"/>
      <path d="M1158.7 62.0 Q1164.5 59.8 1168.8 55.4" stroke-width="0.85" opacity="0.61"/>
      <path d="M1158.7 62.0 Q1165.2 63.7 1171.9 65.1" stroke-width="0.85" opacity="0.61"/>
      <path d="M1166.5 79.7 Q1169.6 73.9 1175.4 71.0" stroke-width="0.85" opacity="0.61"/>
      <path d="M1166.5 79.7 Q1173.2 82.2 1180.4 82.4" stroke-width="0.85" opacity="0.61"/>
      <path d="M1162.5 96.4 Q1169.1 98.6 1175.7 100.7" stroke-width="0.85" opacity="0.61"/>
      <path d="M1162.5 96.4 Q1166.8 101.6 1167.7 108.3" stroke-width="0.85" opacity="0.61"/>
      <path d="M1142.8 72.1 Q1148.0 67.1 1153.1 61.9" stroke-width="1.03" opacity="0.61"/>
      <path d="M1142.8 72.1 Q1150.0 73.3 1156.6 70.0" stroke-width="1.03" opacity="0.61"/>
      <path d="M1111.9 56.6 Q1111.0 49.8 1108.5 43.4" stroke-width="1.03" opacity="0.61"/>
      <path d="M1111.9 56.6 Q1115.2 49.7 1121.4 45.3" stroke-width="1.03" opacity="0.61"/>
      <path d="M1127.2 67.1 Q1131.4 60.9 1133.6 53.6" stroke-width="1.03" opacity="0.61"/>
      <path d="M1127.2 67.1 Q1134.5 67.6 1141.8 68.0" stroke-width="1.03" opacity="0.61"/>
    </g>
    <circle cx="1021.4" cy="34.5" r="12.1" fill="#0E8FA3" opacity="0.13"/>
    <circle cx="1021.4" cy="33.5" r="4.8" fill="#0E8FA3"/>
    <circle cx="1051.9" cy="16.3" r="11.8" fill="#0E8FA3" opacity="0.13"/>
    <circle cx="1051.9" cy="15.3" r="4.7" fill="#0E8FA3"/>
    <circle cx="1071.4" cy="30.5" r="11.0" fill="#0E8FA3" opacity="0.13"/>
    <circle cx="1071.4" cy="29.5" r="4.4" fill="#0E8FA3"/>
    <circle cx="1095.2" cy="20.3" r="13.5" fill="#0E8FA3" opacity="0.13"/>
    <circle cx="1095.2" cy="19.3" r="5.4" fill="#0E8FA3"/>
    <circle cx="1136.9" cy="31.8" r="10.5" fill="#0E8FA3" opacity="0.13"/>
    <circle cx="1136.9" cy="30.8" r="4.2" fill="#0E8FA3"/>
  <line x1="68" y1="178.0" x2="1212" y2="178.0" stroke="url(#rule)" stroke-width="1.25"/>
  <text x="68" y="82" font-family="-apple-system, BlinkMacSystemFont, 'Segoe UI', Helvetica, Arial, sans-serif" font-size="13" font-weight="600" letter-spacing="4.6" fill="#0B7F92">QA ENGINEER</text>
  <text x="68" y="140" font-family="-apple-system, BlinkMacSystemFont, 'Segoe UI', Helvetica, Arial, sans-serif" font-size="56" font-weight="700" letter-spacing="-1.2" fill="#16203A">Kyubum Jang</text>
</svg>
